<svg xmlns="http://www.w3.org/2000/svg" width="100%" fill="none" viewBox="0 0 602 257"><path fill="#D50000" d="M340.28 187.117c-6.978 14.911-16.373 14.911-19.461 14.911-7.487 0-13.693-4.728-18.445-14.052-5.711-11.205-8.73-28.015-8.73-48.615 0-.27.007-.532.007-.801h-39.58c0 .18-.007.355-.007.533v.076c.272 29.252 6.331 53.616 17.522 70.459 11.583 17.429 28.145 26.643 47.9 26.643 21.734 0 39.464-9.424 51.273-27.254 11.104-16.762 16.831-40.472 17.061-70.457h-39.566c-.069 20.764-2.819 37.547-7.974 48.557z"/><path fill="#FFA726" d="M308.989 243.686h-37.632l2.545-14.504 2.522-14.403 2.545-14.509 2.527-14.401 1.894-10.799a4.349 4.349 0 014.288-3.603h4.99a4.354 4.354 0 014.288 3.603l1.894 10.799 2.527 14.401 2.545 14.509 2.522 14.403 2.545 14.504z"/><path fill="#FB8C00" d="M320.665 252.159H259.68l11.673-8.471h37.638l11.674 8.471z"/><path fill="#FFA726" d="M317.28 256.825h-54.217a3.385 3.385 0 01-3.384-3.385v-1.281h60.987v1.281a3.386 3.386 0 01-3.386 3.385z"/><path fill="#ECEFF1" d="M301.376 200.271H278.97l2.526-14.403h17.354l2.526 14.403zM306.443 229.182h-32.541l2.521-14.402h27.499l2.521 14.402z"/><path fill="#D50000" d="M389.581 67.697C378.17 50.134 361.177 40.85 340.435 40.85c-20.47 0-37.746 9.241-49.961 26.721-11.961 17.12-18.311 41.662-18.388 70.988h39.58c.08-20.904 3.229-37.966 9.132-49.366 4.844-9.355 11.003-14.098 18.304-14.098 10.148 0 27.173 8.14 27.173 62.666 0 .269-.005.53-.006.798h39.566c.004-.624.022-1.234.022-1.866 0-29.158-5.476-52.371-16.276-68.996zM452.542 148.658l33.466-46.518v46.518h-33.466zm87.946 0h-16.233V40.851H486.66l-2.402 3.439-77.387 110.741-1.452 2.077V183.168h80.589V230.4h38.247v-47.232h24.284v-34.51h-8.051z"/><path fill="#8C9EA5" d="M96.863 230.788a2.512 2.512 0 01-2.494-2.231L69.244 5.778a2.512 2.512 0 114.992-.565l25.127 222.78a2.513 2.513 0 01-2.5 2.795zM164.878 230.788a2.512 2.512 0 01-2.494-2.231L137.258 5.778a2.514 2.514 0 012.216-2.78 2.515 2.515 0 012.777 2.215l25.127 222.78a2.513 2.513 0 01-2.5 2.795z"/><path fill="#8C9EA5" d="M142.376 31.247H74.36a2.513 2.513 0 010-5.025h68.016a2.512 2.512 0 110 5.025zM143.797 53.353H77.204a2.513 2.513 0 010-5.026h66.593a2.512 2.512 0 110 5.026zM145.218 75.458H80.045a2.513 2.513 0 010-5.025h65.173a2.512 2.512 0 110 5.025zM149.855 97.564H82.99a2.513 2.513 0 010-5.025h66.865a2.512 2.512 0 110 5.025zM152.318 119.669H85.055a2.513 2.513 0 110-5.025h67.263a2.512 2.512 0 110 5.025zM154.841 141.775H87.517a2.514 2.514 0 010-5.026h67.324a2.513 2.513 0 010 5.026z"/><path fill="#B0BEC5" d="M140.251 10.113H67.149a4.617 4.617 0 110-9.233h73.102a4.616 4.616 0 010 9.233z"/><path fill="#B0BEC5" d="M111.594 230.788a2.513 2.513 0 01-2.5-2.795l25.127-222.78a2.513 2.513 0 114.992.565l-25.125 222.779a2.514 2.514 0 01-2.494 2.231zM43.58 230.788a2.513 2.513 0 01-2.5-2.795L66.205 5.213a2.512 2.512 0 114.992.565L46.073 228.557a2.513 2.513 0 01-2.494 2.231z"/><path fill="#B0BEC5" d="M134.096 31.247H66.081a2.513 2.513 0 010-5.025h68.015a2.513 2.513 0 110 5.025zM131.254 53.353H64.661a2.513 2.513 0 010-5.026h66.593a2.512 2.512 0 110 5.026zM128.413 75.458H63.239a2.513 2.513 0 010-5.025h65.174a2.512 2.512 0 110 5.025zM125.467 97.564H58.602a2.513 2.513 0 010-5.025h66.865a2.512 2.512 0 110 5.025zM123.402 119.669H56.139a2.513 2.513 0 110-5.025h67.263a2.513 2.513 0 110 5.025zM120.939 141.775H53.615a2.514 2.514 0 010-5.026h67.324a2.513 2.513 0 010 5.026z"/><path fill="#D50000" d="M144.433 107.224l57.257 2.307-38.821 25.624-18.436-27.931zm39.505 59.852l83.256-54.955 6.718-4.433-4.434-6.719-13.965-21.157-2.311-3.501-4.193-.111-135.055-3.58-2.533-.067-2.115 1.395-12.916 8.527-6.718 4.434 4.434 6.718 39.96 60.54-32.701 21.585-6.717 4.435 4.434 6.717 12.202 18.484 4.433 6.719 6.717-4.435 32.702-21.585 8.944 13.55 4.434 6.718 6.718-4.436 15.366-10.143 6.718-4.433-4.435-6.718-8.943-13.549z"/><path fill="#B0BEC5" d="M66.752 201.771c-11.475 0-20.779 9.302-20.779 20.778 0 11.475 9.304 20.778 20.779 20.778h175.732v-41.556H66.752z"/><path fill="#607D8B" d="M66.752 201.771c-11.475 0-20.779 9.302-20.779 20.778 0 11.476 9.304 20.778 20.779 20.778h175.732v-41.556H66.752z"/><path fill="#CFD8DC" d="M263.262 222.549c0 11.475-9.303 20.779-20.778 20.779-11.476 0-20.778-9.304-20.778-20.779 0-11.476 9.302-20.778 20.778-20.778 11.475 0 20.778 9.302 20.778 20.778z"/><path fill="#B0BEC5" d="M227.507 222.549c0-8.272 6.705-14.977 14.977-14.977s14.976 6.705 14.976 14.977c0 8.271-6.704 14.976-14.976 14.976-8.272 0-14.977-6.705-14.977-14.976zM44.36 164.779c-11.476 0-20.779 9.304-20.779 20.778 0 11.475 9.303 20.779 20.779 20.779h175.731v-41.557H44.36z"/><path fill="#607D8B" d="M44.36 164.779c-11.476 0-20.779 9.304-20.779 20.778 0 11.475 9.303 20.779 20.779 20.779h175.731v-41.557H44.36z"/><path fill="#CFD8DC" d="M240.87 185.557c0 11.475-9.303 20.779-20.779 20.779-11.475 0-20.779-9.304-20.779-20.779 0-11.474 9.304-20.778 20.779-20.778 11.476 0 20.779 9.304 20.779 20.778z"/><path fill="#B0BEC5" d="M205.114 185.557c0-8.27 6.705-14.976 14.977-14.976s14.977 6.706 14.977 14.976c0 8.272-6.705 14.978-14.977 14.978s-14.977-6.706-14.977-14.978z"/><path fill="#607D8B" d="M21.191 201.771c-11.476 0-20.778 9.302-20.778 20.778 0 11.475 9.302 20.778 20.778 20.778h175.731v-41.556H21.192z"/><path fill="#CFD8DC" d="M217.701 222.549c0 11.475-9.302 20.779-20.778 20.779-11.475 0-20.778-9.304-20.778-20.779 0-11.476 9.303-20.778 20.778-20.778 11.476 0 20.778 9.302 20.778 20.778z"/><path fill="#B0BEC5" d="M181.946 222.549c0-8.272 6.705-14.977 14.976-14.977 8.273 0 14.977 6.705 14.977 14.977 0 8.271-6.704 14.976-14.977 14.976-8.271 0-14.976-6.705-14.976-14.976z"/><path fill="#607D8B" d="M571.392 202.548v-49.016c0-3.187-3.033-5.771-6.776-5.771H516.18c-3.742 0-6.776 2.584-6.776 5.771v49.016c0 5.345 3.107 10.343 8.296 13.347l15.438 8.934c4.381 2.536 10.14 2.536 14.521 0l15.436-8.934c5.191-3.004 8.297-8.002 8.297-13.347z"/><path fill="url(#paint0_linear)" d="M539.975 147.761v25.39a5.162 5.162 0 005.164 5.162 5.162 5.162 0 005.164-5.162v-25.39h-10.328z"/><path fill="#263238" d="M545.562 50.84V173.15a5.162 5.162 0 01-5.164 5.162 5.162 5.162 0 01-5.164-5.162V50.84h10.328z"/><path fill="#FFAB40" d="M537.816 177.619a5.162 5.162 0 007.745-4.468V50.84h-5.162v122.311a5.16 5.16 0 01-2.583 4.468z"/><path fill="#263238" d="M521.315 28.735c0 10.522 8.56 19.084 19.084 19.084 10.523 0 19.083-8.562 19.083-19.085V9.65h-38.167v19.084zm44.211-22.106v22.105c0 13.856-11.272 25.128-25.127 25.128-13.856 0-25.128-11.272-25.128-25.128V6.63a3.022 3.022 0 013.021-3.023h44.212a3.023 3.023 0 013.022 3.023z"/><path fill="#FFAB40" d="M552.737 3.233v6.95c0 .949-.768 1.715-1.715 1.715h-22.094a1.715 1.715 0 01-1.716-1.714v-6.95c0-.948.769-1.716 1.716-1.716h22.094c.947 0 1.715.768 1.715 1.715z"/><path fill="#CFD8DC" d="M346.447 235.997c-7.964-.001-11.816-9.969-5.76-15.14a16.282 16.282 0 013.032-2.054c4.344-2.266 9.655-2.434 14.227-.711 2.941 1.108 6.273.445 8.614-1.652 3.456-3.097 8.334-4.761 13.054-4.905 4.529-.138 8.965.876 13.292 2.3a8.58 8.58 0 009.601-3.084c9.331-12.787 24.588-20.903 40.301-23.791 9.51-1.748 19.57-1.748 28.586 1.747 6.762 2.62 12.85 7.422 16.501 13.605 1.841 3.117 5.523 4.729 9.076 4.032 6.845-1.345 14.517 1.156 19.312 6.233 2.743 2.904 7.063 3.77 10.545 1.811 3.107-1.747 6.451-2.948 9.994-3.072 4.046-.139 8.301 1.609 10.934 4.556 2.115 2.368 5.383 3.291 8.522 2.819 2.409-.366 4.934.024 7.056 1.23l.121.071c7.561 4.413 4.239 16.065-4.516 16.063l-212.492-.058z"/><path fill="#263238" d="M572.343 226.954H333.035a3.535 3.535 0 00-3.535 3.535v9.304a3.535 3.535 0 003.535 3.535h239.308a3.535 3.535 0 003.535-3.535v-9.304a3.535 3.535 0 00-3.535-3.535zM37.926 151.671l-10.061.018.267 105.128 10.061-.018-.267-105.128z"/><path fill="#263238" d="M20.69 252.435l.003 1.155a3.242 3.242 0 003.246 3.236l18.446-.035a3.24 3.24 0 003.234-3.247v-1.154l-24.929.045z"/><path fill="#455A64" d="M38.175 247.568l-10.06.018-7.425 4.848 24.928-.045-7.443-4.821z"/><path fill="#FFAB40" d="M38.175 247.568l-.248-95.897-3.706.006.25 95.898 3.592 4.828.002 1.156a3.242 3.242 0 01-3.234 3.246l7.554-.014a3.242 3.242 0 003.235-3.247l-.003-1.155-7.442-4.821z"/><path fill="#E53935" d="M44.2 141.079c-.012-6.683-5.44-12.09-12.123-12.079-6.682.013-12.09 5.44-12.077 12.124.012 6.683 5.44 12.091 12.123 12.077 6.682-.012 12.089-5.44 12.077-12.122z"/><path fill="#fff" d="M29.341 135.178a2.283 2.283 0 11-4.566.01 2.283 2.283 0 014.566-.01z" opacity=".5"/><path fill="#FFAB40" d="M32.09 153.2h.065c6.668-.031 12.057-5.449 12.045-12.121a12.045 12.045 0 00-1.57-5.927l-16.447 16.497a12.025 12.025 0 005.906 1.551z"/><path fill="#263238" d="M592.574 154.892l-9.762.019.259 100.87 9.761-.018-.258-100.871z"/><path fill="#263238" d="M575.852 251.53l.001 1.121a3.144 3.144 0 003.151 3.138l17.896-.032a3.146 3.146 0 003.138-3.151l-.002-1.12-24.184.044z"/><path fill="#455A64" d="M592.816 246.807l-9.762.019-7.202 4.704 24.184-.044-7.22-4.679z"/><path fill="#FFAB40" d="M592.933 246.807l-.241-91.915-3.596.007.243 91.914 3.485 4.686.003 1.121a3.146 3.146 0 01-3.139 3.149l7.329-.013a3.146 3.146 0 003.139-3.151l-.003-1.12-7.22-4.678z"/><path fill="#E53935" d="M599.411 143.139c-.012-6.482-5.278-11.729-11.762-11.717-6.484.012-11.73 5.277-11.717 11.761.012 6.484 5.277 11.73 11.761 11.718 6.484-.011 11.73-5.279 11.718-11.762z"/><path fill="#FFAB40" d="M587.663 154.901h.061c6.469-.03 11.699-5.286 11.687-11.761a11.684 11.684 0 00-1.523-5.749l-15.957 16.006a11.662 11.662 0 005.732 1.504"/><path fill="#fff" d="M586.011 137.413a2.214 2.214 0 01-2.211 2.218 2.214 2.214 0 11-.009-4.429 2.216 2.216 0 012.22 2.211z" opacity=".5"/><path fill="#FFD740" d="M601.575 154.901l.041 22.011-582.444 1.085-.041-22.011 582.444-1.085z"/><path fill="#263238" d="M44.232 155.939l-21.974 22.056-3.082.006-.022-12.49 9.513-9.544 15.565-.028zM73.413 155.884l-21.98 22.057-15.566.028 21.98-22.056 15.566-.029zM102.587 155.831l-21.975 22.056-15.572.028 21.982-22.056 15.565-.028zM131.768 155.776l-21.98 22.056-15.566.028 21.98-22.056 15.566-.028zM160.948 155.721l-21.973 22.056-15.572.03 21.98-22.058 15.565-.028zM190.128 155.667l-21.98 22.056-15.565.029 21.98-22.057 15.565-.028zM219.309 155.612l-21.975 22.057-15.572.028 21.982-22.056 15.565-.029zM248.49 155.557l-21.98 22.058-15.566.028 21.98-22.056 15.566-.03zM277.67 155.504l-21.975 22.056-15.57.028 21.98-22.056 15.565-.028zM306.85 155.449l-21.98 22.056-15.565.028 21.98-22.056 15.565-.028zM336.03 155.395l-21.973 22.056-15.572.029 21.98-22.057 15.565-.028zM365.212 155.34l-21.98 22.057-15.567.028 21.981-22.056 15.566-.029zM394.392 155.285l-21.975 22.058-15.57.028 21.98-22.056 15.565-.03zM423.572 155.232l-21.98 22.056-15.565.028 21.98-22.056 15.565-.028zM452.753 155.177l-21.974 22.056-15.572.028 21.98-22.056 15.566-.028zM481.934 155.122l-21.98 22.056-15.567.03 21.981-22.058 15.566-.028zM511.114 155.068l-21.975 22.056-15.572.029 21.981-22.057 15.566-.028zM540.294 155.013l-21.98 22.057-15.565.028 21.98-22.056 15.565-.029zM569.475 154.96l-21.974 22.056-15.572.028 21.98-22.056 15.566-.028zM598.655 154.905l-21.98 22.056-15.565.028 21.98-22.056 15.565-.028zM601.595 165.592l.021 11.319-11.332.021 11.311-11.34z"/><path fill="#FFAB40" d="M19.176 177.999l582.44-1.086-.021-11.162-582.439 1.085.02 11.163z"/><defs><linearGradient id="paint0_linear" x1="545.139" x2="545.139" y1="178.314" y2="147.761" gradientUnits="userSpaceOnUse"><stop stop-color="#fff"/><stop offset=".001" stop-color="#fff"/><stop offset="1" stop-color="#FFA726"/></linearGradient></defs></svg>